<svg width="1974" height="2304" viewBox="0 0 1974 2304" fill="none" xmlns="http://www.w3.org/2000/svg">
<g clip-path="url(#clip0_200_82)">
<rect width="1974" height="2304" fill="#0A0E30"/>
<g opacity="0.5">
<path d="M-215.183 191.045C-182.234 288.013 -143.436 383.025 -99.1247 475.385C-79.4077 516.427 -57.9882 557.877 -24.6836 588.949C60.4138 668.41 194.612 658.047 307.046 627.967C410.622 600.274 510.838 560.226 604.949 508.914C698.207 458.071 787.094 395.563 889.634 367.853C992.209 340.162 1116.25 356.422 1181.28 440.484C1219.97 490.484 1231.96 557.413 1224.95 620.196C1217.95 682.98 1193.62 742.525 1165.65 799.18C1133.64 864.032 1095.56 930.249 1096.9 1002.59C1098.32 1077.45 1146.87 1149.46 1215.83 1178.83C1313.92 1220.62 1424.71 1177.56 1527.17 1148.33C1657.38 1111.19 1799.62 1097.5 1926.57 1144.7C2053.52 1191.91 2159.82 1311.14 2160.63 1446.46" stroke="url(#paint0_linear_200_82)" stroke-miterlimit="10"/>
<path d="M-193.047 169.096C-160.821 264.609 -122.445 358.006 -78.3563 448.537C-58.7581 488.804 -37.42 529.323 -4.74191 559.926C60.9209 621.38 155.817 629.593 247.039 617.026C271.878 613.613 296.466 608.676 320.103 602.808C421.794 577.649 520.478 540.294 613.459 491.822C705.552 443.802 793.445 383.705 894.547 357.587C951.247 342.956 1013.9 340.224 1070.66 353.732C1120.09 365.518 1165.17 389.938 1196.9 429.808C1202.55 436.931 1207.71 444.409 1212.31 452.207C1240.72 500.2 1248.78 559.124 1242.99 615.153C1241.15 633.15 1237.95 650.919 1233.8 668.414C1222.95 714.097 1205.54 758.415 1186.76 801.104C1157.04 868.907 1124.13 937.575 1128.18 1010.71C1132.2 1083.35 1178.55 1153.14 1245.72 1182.18C1341.33 1223.48 1449.17 1183.75 1548.63 1157.69C1556.49 1155.64 1564.34 1153.67 1572.27 1151.82C1691.95 1123.61 1819.4 1117.69 1933.06 1163C2054.26 1211.31 2154.65 1328.35 2153.42 1460.31" stroke="url(#paint1_linear_200_82)" stroke-miterlimit="10"/>
<path d="M-172.135 146.059C-140.461 239.8 -102.365 331.319 -58.4034 419.847C-38.8821 459.179 -17.5693 498.748 14.5279 528.801C79.0634 589.171 171.54 598.783 260.675 588.311C284.991 585.489 309.036 581.179 332.232 575.992C431.878 553.687 528.884 519.312 620.522 474.014C711.291 429.133 798.007 371.97 897.496 347.625C956.086 333.297 1020.42 330.262 1079.14 343.436C1130.14 354.895 1177.21 379.348 1210.37 419.821C1216.31 427.045 1221.7 434.674 1226.54 442.674C1256.42 491.788 1264.63 552.359 1259.2 610.185C1257.48 628.72 1254.43 647.043 1250.45 665.057C1240.08 712.138 1223.68 758.033 1206.43 802.308C1179.17 872.727 1151.5 943.45 1158.43 1017.27C1165.02 1087.39 1209.36 1154.86 1274.8 1183.57C1367.92 1224.38 1472.62 1188.36 1568.93 1165.76C1576.52 1163.97 1584.15 1162.28 1591.82 1160.67C1707.6 1136.54 1829.85 1134.26 1938.09 1180.64C2053.5 1230.06 2148.11 1344.77 2145.13 1472.82" stroke="url(#paint2_linear_200_82)" stroke-miterlimit="10"/>
<path d="M-150.002 124.118C-119.055 216.409 -81.3829 306.316 -37.6989 393.033C-18.2797 431.556 2.88113 470.245 34.4027 499.814C97.7183 559.179 187.878 570.062 275.049 561.52C298.87 559.23 322.438 555.502 345.192 550.914C442.95 531.146 538.455 499.484 628.928 457.009C718.547 414.918 804.301 360.355 902.335 337.462C962.884 323.301 1028.99 319.788 1089.67 332.544C1142.29 343.635 1191.3 368.048 1225.87 409.229C1232.08 416.603 1237.72 424.419 1242.78 432.588C1274.05 482.947 1282.31 545.428 1277.14 605.279C1275.49 624.423 1272.51 643.357 1268.72 662.001C1258.75 710.679 1243.26 758.406 1227.44 804.434C1202.48 877.822 1179.8 950.743 1189.59 1025.66C1198.41 1093.4 1240.87 1158.82 1304.58 1187.15C1395.25 1227.49 1496.95 1194.79 1590.27 1175.37C1597.63 1173.84 1605 1172.4 1612.41 1171.03C1724.45 1150.67 1841.66 1151.79 1944.47 1199.16C2054.1 1249.64 2142.84 1362.24 2137.8 1486.89" stroke="url(#paint3_linear_200_82)" stroke-miterlimit="10"/>
<path d="M-129.056 101.022C-98.6768 191.481 -61.2518 279.524 -17.6638 364.171C1.70091 401.797 22.8254 439.47 53.7682 468.48C115.926 526.728 203.657 539.02 288.798 532.627C312.057 530.916 335.112 527.838 357.422 523.938C453.134 507.015 546.942 478.367 636.03 439.139C724.285 400.258 808.922 348.762 905.271 327.521C967.692 313.779 1035.46 309.903 1098.11 322.307C1152.28 333.119 1203.25 357.517 1239.29 399.305C1245.75 406.794 1251.67 414.74 1256.97 423.107C1289.7 474.599 1298.18 538.667 1293.37 600.252C1291.82 619.953 1288.99 639.426 1285.38 658.576C1275.91 708.615 1261.46 757.879 1247.22 805.475C1224.73 881.454 1207.18 956.137 1220.01 1031.9C1231.04 1097 1271.93 1160.16 1333.85 1188.18C1422.02 1228.07 1520.58 1199.07 1610.72 1183.15C1617.81 1181.89 1624.94 1180.74 1632.12 1179.65C1740.27 1163.42 1852.25 1168.17 1949.63 1216.6C2053.45 1268.2 2136.44 1378.4 2129.69 1499.07" stroke="url(#paint4_linear_200_82)" stroke-miterlimit="10"/>
<path d="M-106.806 78.8536C-77.1219 167.807 -40.092 254.187 3.28077 336.991C22.5557 373.788 43.5404 410.56 73.9138 439.076C134.847 496.336 220.265 509.896 303.404 505.427C326.145 504.294 348.735 501.778 370.595 498.49C464.426 484.18 556.633 458.276 644.554 421.96C731.625 385.941 815.31 337.28 910.095 317.375C974.492 303.848 1044.01 299.469 1108.63 311.517C1164.42 321.971 1217.35 346.347 1254.79 388.808C1261.52 396.445 1267.67 404.522 1273.21 413.107C1307.39 465.84 1315.86 531.745 1311.33 595.314C1309.86 615.612 1307.15 635.701 1303.67 655.431C1294.61 707.031 1280.97 758.072 1268.31 807.403C1248 886.221 1235.42 962.972 1251.33 1039.93C1264.25 1102.57 1303.64 1163.68 1363.83 1191.35C1449.52 1230.72 1545.09 1205.13 1632.18 1192.49C1639.05 1191.5 1645.92 1190.59 1652.84 1189.76C1757.22 1177.33 1864.08 1185.55 1956.05 1235.03C2054.13 1287.73 2131.21 1395.74 2122.46 1512.95" stroke="url(#paint5_linear_200_82)" stroke-miterlimit="10"/>
<path d="M-86.338 56.6715C-57.2778 143.983 -20.5605 228.54 22.6551 309.391C41.8319 345.29 62.788 381.115 92.5863 409.148C152.336 465.338 235.412 480.224 316.519 477.821C338.712 477.239 360.787 475.378 382.236 472.714C474.089 461.119 564.657 438.114 651.297 404.847C737.105 371.841 819.781 326.204 912.901 307.746C979.229 294.607 1050.43 289.746 1117.04 301.408C1174.43 311.538 1229.29 335.914 1268.17 379.023C1275.19 386.767 1281.58 395.052 1287.35 403.792C1322.97 457.685 1331.59 525.315 1327.33 590.764C1325.97 611.621 1323.39 632.286 1320.1 652.576C1311.5 705.633 1298.87 758.33 1287.68 809.257C1269.78 890.822 1262.03 969.328 1281.14 1047.42C1295.84 1107.47 1333.93 1166.47 1392.4 1193.77C1475.59 1232.68 1568.1 1210.64 1652.09 1201.35C1658.7 1200.61 1665.36 1199.95 1671.99 1199.4C1772.53 1190.94 1874.23 1202.73 1960.8 1253.22C2053.09 1307 2124.34 1412.75 2113.76 1526.22" stroke="url(#paint6_linear_200_82)" stroke-miterlimit="10"/>
<path d="M-64.0741 34.4772C-35.6846 120.237 0.626465 203.152 43.5991 282.13C62.6713 317.228 83.5084 352.112 112.739 379.649C171.284 434.812 251.989 450.993 331.138 450.6C352.828 450.566 374.417 449.305 395.415 447.256C485.343 438.276 574.334 418.053 659.781 387.666C744.376 357.577 826.14 314.865 917.655 297.653C985.975 284.787 1058.89 279.404 1127.48 290.676C1186.46 300.429 1243.33 324.798 1283.63 368.596C1290.89 376.468 1297.56 384.901 1303.56 393.86C1340.57 449.007 1349.25 518.454 1345.29 585.852C1344 607.304 1341.49 628.599 1338.36 649.487C1330.17 704.102 1318.45 758.574 1308.75 811.23C1293.16 895.699 1290.02 976.066 1312.46 1055.46C1328.71 1113.04 1365.69 1170 1422.38 1196.94C1503.1 1235.34 1592.62 1216.78 1673.54 1210.73C1679.92 1210.26 1686.31 1209.85 1692.69 1209.55C1789.44 1204.95 1886.03 1220.21 1967.17 1271.76C2053.66 1326.66 2119.09 1430.22 2106.51 1540.16" stroke="url(#paint7_linear_200_82)" stroke-miterlimit="10"/>
<path d="M-42.9967 11.1205C-15.2477 95.2698 20.7182 176.425 63.5207 253.475C82.5232 287.704 103.274 321.667 131.91 348.675C189.266 402.779 267.602 420.171 344.728 421.911C365.891 422.389 386.968 421.777 407.506 420.363C495.451 414.107 582.837 396.718 667.054 369.364C750.404 342.255 831.195 302.668 921.062 286.701C991.358 274.22 1065.93 268.319 1136.52 279.195C1197.1 288.649 1255.89 312.981 1297.66 357.403C1305.19 365.418 1312.13 373.993 1318.34 383.144C1356.78 439.466 1365.59 510.667 1361.9 579.975C1360.71 601.996 1358.33 623.877 1355.39 645.334C1347.66 701.398 1336.9 757.62 1328.7 811.915C1315.49 899.171 1316.87 981.308 1342.79 1061.85C1360.5 1116.87 1396.51 1171.71 1451.45 1198.34C1529.7 1236.29 1616.14 1221.23 1693.97 1218.51C1700.09 1218.3 1706.26 1218.15 1712.41 1218.13C1805.32 1217.47 1896.77 1236.24 1972.49 1288.85C2053.23 1344.85 2112.79 1446.16 2098.33 1552.44" stroke="url(#paint8_linear_200_82)" stroke-miterlimit="10"/>
<path d="M-21.1495 -10.2728C5.96074 72.1847 41.6148 151.606 84.2621 226.706C103.201 260.056 123.838 293.072 151.918 319.564C208.095 372.6 284.093 391.316 359.191 395.12C379.842 396.166 400.423 396.176 420.498 395.4C506.472 391.856 592.224 377.363 675.164 353.055C757.256 328.956 837.059 292.53 925.248 277.87C997.528 265.85 1073.76 259.367 1146.26 269.912C1208.45 279.045 1269.18 303.345 1312.38 348.452C1320.19 356.607 1327.35 365.338 1333.85 374.68C1373.77 432.18 1382.68 505.121 1379.31 576.238C1378.22 598.816 1375.98 621.272 1373.19 643.27C1365.93 700.79 1356.17 758.665 1349.44 814.588C1338.63 904.589 1344.38 988.457 1374 1070.18C1393.03 1122.67 1428.24 1175.37 1481.41 1201.65C1557.19 1239.09 1640.54 1227.61 1715.26 1228.22C1721.15 1228.28 1727.05 1228.39 1732.94 1228.63C1822.01 1231.92 1908.33 1254.22 1978.65 1307.84C2053.62 1364.91 2107.36 1463.93 2091.02 1566.49" stroke="url(#paint9_linear_200_82)" stroke-miterlimit="10"/>
<path d="M-0.273335 -33.2349C26.1554 47.689 61.4457 125.385 103.873 198.649C122.694 231.14 143.266 263.278 170.744 289.253C225.717 341.257 299.372 361.297 372.468 367.108C392.579 368.689 412.672 369.303 432.328 369.166C516.364 368.256 600.562 356.585 682.278 335.214C763.144 314.055 842.07 280.735 928.63 267.2C1002.91 255.595 1080.84 248.454 1155.35 258.572C1219.12 267.328 1281.84 291.652 1326.45 337.391C1334.55 345.659 1341.97 354.572 1348.67 364.113C1390 422.828 1398.97 497.582 1395.86 570.71C1394.85 593.883 1392.69 616.933 1390.05 639.561C1383.2 698.634 1374.35 758.279 1369.11 815.925C1360.68 908.805 1370.54 994.562 1403.91 1077.53C1424.05 1127.56 1458.56 1178.15 1510.01 1204.06C1583.3 1241.03 1663.64 1233.01 1735.28 1236.93C1740.94 1237.26 1746.58 1237.63 1752.2 1238.12C1837.47 1245.3 1918.66 1271.09 1983.55 1325.77C2052.71 1383.98 2100.58 1480.82 2082.31 1579.81" stroke="url(#paint10_linear_200_82)" stroke-miterlimit="10"/>
<path d="M22.2604 -55.9476C48.0637 23.3348 83.0219 99.2431 125.308 170.521C144.046 202.167 164.538 233.289 191.44 258.781C245.264 309.732 316.491 331.092 387.609 338.946C407.208 341.095 426.786 342.362 445.997 342.829C528.058 344.627 610.619 335.848 691.057 317.519C770.662 299.367 848.631 269.307 933.478 256.973C1009.72 245.864 1089.3 238.141 1165.77 247.912C1231.15 256.347 1295.8 280.639 1341.84 327.06C1350.18 335.45 1357.87 344.502 1364.81 354.25C1407.58 414.157 1416.69 490.63 1413.89 565.597C1412.98 589.326 1410.94 612.985 1408.51 636.137C1402.12 696.662 1394.27 757.992 1390.56 817.213C1384.53 912.833 1398.4 1000.4 1435.82 1084.46C1457.01 1132.05 1490.97 1180.37 1540.66 1205.97C1611.45 1242.47 1688.75 1237.96 1757.28 1245.25C1762.68 1245.84 1768.09 1246.48 1773.47 1247.19C1854.89 1258.32 1930.95 1287.63 1990.42 1343.35C2053.83 1402.64 2095.9 1497.18 2075.73 1592.45" stroke="url(#paint11_linear_200_82)" stroke-miterlimit="10"/>
<path d="M42.6275 -77.933C67.8228 -0.32228 102.465 73.8551 144.523 143.15C163.197 173.919 183.606 204.113 209.918 229.071C262.54 278.988 331.43 301.666 400.506 311.524C419.575 314.273 438.641 316.107 457.425 317.229C537.55 321.747 618.446 315.837 697.643 300.563C775.993 285.412 853.008 258.694 936.147 247.472C1014.37 236.91 1095.58 228.554 1174.04 237.946C1241.02 246.061 1307.62 270.375 1355.1 317.394C1363.71 325.924 1371.63 335.132 1378.84 345.019C1423.05 406.084 1432.29 484.259 1429.85 561.102C1429.07 585.439 1427.14 609.62 1424.87 633.312C1418.94 695.29 1412.22 758.29 1409.85 819.119C1406.44 917.501 1423.93 1006.98 1465.55 1092.01C1487.65 1137.17 1521.21 1183.25 1569.13 1208.5C1637.48 1244.51 1711.67 1243.54 1777.12 1254.17C1782.29 1255.03 1787.44 1255.93 1792.58 1256.91C1870.21 1272 1941.08 1304.84 1995.16 1361.57C2052.8 1421.92 2089.03 1514.19 2067.01 1605.76" stroke="url(#paint12_linear_200_82)" stroke-miterlimit="10"/>
<path d="M64.9129 -100.173C89.3989 -24.1257 123.718 48.3317 165.562 115.781C184.154 145.702 204.432 174.977 230.177 199.435C281.599 248.315 348.141 272.326 415.209 284.202C433.771 287.507 452.347 289.948 470.675 291.695C548.856 298.862 628.172 295.737 706.118 283.452C783.234 271.258 859.361 247.751 940.848 237.527C1021.11 227.491 1103.99 218.343 1184.42 227.378C1252.97 235.15 1321.57 259.401 1370.47 307.1C1379.36 315.776 1387.55 325.131 1394.96 335.217C1440.62 397.511 1449.91 477.493 1447.71 556.322C1447.01 581.252 1445.2 606.043 1443.1 630.328C1437.58 693.853 1431.77 758.616 1430.9 821.162C1429.83 922.394 1450.87 1014.02 1496.88 1100.05C1519.81 1142.89 1552.97 1186.71 1599.15 1211.62C1665.01 1247.15 1736.17 1249.67 1798.56 1263.59C1803.48 1264.67 1808.38 1265.87 1813.26 1267.11C1887.09 1286.07 1952.81 1322.46 2001.46 1380.26C2053.28 1441.75 2083.66 1531.8 2059.7 1619.81" stroke="url(#paint13_linear_200_82)" stroke-miterlimit="10"/>
<path d="M87.4089 -122.818C111.238 -48.4227 145.189 22.2355 186.836 87.7196C205.294 116.773 225.525 145.095 250.66 169.01C300.862 216.803 365.011 242.144 430.038 256.02C448.045 259.868 466.116 262.922 484.009 265.317C560.163 275.197 637.83 274.901 714.504 265.649C790.331 256.435 865.457 236.284 945.218 227.116C1027.43 217.66 1111.9 207.809 1194.25 216.478C1264.37 223.913 1334.84 248.147 1385.15 296.477C1394.3 305.238 1402.74 314.764 1410.39 325.054C1457.45 388.485 1466.82 470.188 1464.95 550.829C1464.35 576.312 1462.62 601.69 1460.7 626.53C1455.64 691.5 1450.82 757.906 1451.44 822.087C1452.74 926.045 1477.17 1019.85 1527.76 1106.52C1551.41 1147.06 1584.27 1188.48 1628.71 1213C1692.04 1248.01 1760.1 1254.07 1819.37 1271.31C1824.06 1272.66 1828.7 1274.11 1833.32 1275.6C1903.27 1298.48 1963.82 1338.35 2006.99 1397.14C2053 1459.68 2077.53 1547.44 2051.71 1631.72" stroke="url(#paint14_linear_200_82)" stroke-miterlimit="10"/>
<path d="M107.722 -144.698C130.974 -71.955 164.611 -3.02275 206.135 60.5386C224.546 88.726 244.712 116.132 269.275 139.523C318.332 186.27 380.17 212.977 443.196 228.871C460.703 233.288 478.29 236.964 495.731 240C569.963 252.597 646.043 255.201 721.485 248.997C796.098 242.796 870.324 226.048 948.403 217.955C1032.66 209.208 1118.78 198.611 1203.13 206.909C1274.89 214.047 1347.37 238.294 1399.14 287.277C1408.56 296.182 1417.28 305.851 1425.15 316.334C1473.68 380.979 1483.25 464.378 1481.69 546.901C1481.2 572.943 1479.61 598.897 1477.85 624.279C1473.29 690.673 1469.44 758.786 1471.58 824.585C1475.34 931.263 1502.97 1027.46 1558.45 1114.71C1582.85 1153.06 1615.54 1192.03 1658.22 1216.24C1719.11 1250.8 1784.15 1260.39 1840.38 1280.97C1844.81 1282.58 1849.22 1284.31 1853.58 1286.06C1919.75 1312.89 1975.21 1356.27 2013.03 1416.08C2053.35 1479.71 2072.1 1565.19 2044.4 1645.76" stroke="url(#paint15_linear_200_82)" stroke-miterlimit="10"/>
<path d="M129.999 -166.928C152.55 -95.7549 185.781 -28.5525 227.094 33.0667C245.408 60.3947 265.446 86.8355 289.407 109.749C337.228 155.437 396.678 183.464 457.657 201.366C474.645 206.335 491.679 210.632 508.672 214.255C580.913 229.491 655.351 234.905 729.568 231.632C802.905 228.38 876.236 214.943 952.571 207.769C1038.79 199.65 1126.56 188.156 1212.85 196.04C1286.16 202.782 1360.55 227.011 1413.71 276.651C1423.4 285.698 1432.33 295.526 1440.44 306.187C1490.35 372.019 1499.97 457.258 1498.66 541.683C1498.24 568.311 1496.77 594.871 1495.17 620.841C1491.01 688.769 1488.1 758.616 1491.7 826.099C1497.76 935.638 1528.3 1034.51 1588.74 1122.14C1613.73 1158.38 1646.22 1194.82 1687.13 1218.69C1745.48 1252.75 1807.5 1265.8 1860.58 1289.69C1864.78 1291.57 1868.94 1293.52 1873.05 1295.57C1935.36 1326.3 1985.68 1373.2 2017.99 1434.05C2052.45 1498.81 2065.32 1582.08 2035.68 1659.07" stroke="url(#paint16_linear_200_82)" stroke-miterlimit="10"/>
<path d="M150.864 -189.867C172.765 -120.295 205.7 -54.7778 246.812 4.98104C265.048 31.4977 285.028 57.0061 308.409 79.408C355.071 124.072 412.207 153.462 471.225 173.38C487.663 178.931 504.267 183.829 520.812 188.086C591.141 206.011 664.011 214.285 737.022 214.011C809.169 213.723 881.596 203.697 956.328 197.439C1044.62 190.053 1134.1 177.624 1222.42 185.146C1297.4 191.554 1373.8 215.779 1428.4 266.098C1438.36 275.242 1447.59 285.271 1455.91 296.133C1507.32 363.209 1517 450.239 1515.98 536.664C1515.65 563.884 1514.26 591.068 1512.84 617.631C1509.11 687.101 1507.18 758.724 1512.26 827.904C1520.7 940.324 1553.97 1042.16 1619.72 1129.94C1645.36 1164.14 1677.73 1198.05 1716.89 1221.57C1772.84 1255.17 1831.81 1271.76 1881.83 1299.01C1885.76 1301.15 1889.7 1303.37 1893.55 1305.68C1952.07 1340.36 1997.29 1390.81 2024.2 1452.75C2052.9 1518.63 2059.93 1599.71 2028.38 1673.12" stroke="url(#paint17_linear_200_82)" stroke-miterlimit="10"/>
<path d="M173.307 -212.409C194.549 -144.485 227.113 -80.7627 268.024 -22.9646C286.143 2.65149 306.022 27.2258 328.827 49.1027C374.25 92.7154 428.944 123.532 485.994 145.306C501.894 151.449 517.977 156.905 534.087 161.809C602.444 182.42 673.648 193.548 745.353 196.277C816.178 198.941 887.653 192.415 960.68 187.087C1050.94 180.502 1141.97 167.145 1232.21 174.3C1308.69 180.387 1387.02 204.577 1443.04 255.49C1453.27 264.769 1462.73 274.917 1471.28 285.982C1524.07 354.226 1533.88 442.955 1533.14 531.203C1532.91 558.974 1531.65 586.728 1530.41 613.844C1527.13 684.754 1526.16 757.998 1532.72 828.809C1543.57 943.932 1579.31 1048.86 1650.5 1136.42C1676.71 1168.64 1708.94 1199.82 1746.34 1222.99C1799.75 1256.09 1855.64 1276.17 1902.56 1306.73C1906.26 1309.13 1909.93 1311.61 1913.51 1314.17C1968.17 1352.75 2008.21 1406.71 2029.71 1469.63C2052.62 1536.6 2053.79 1615.35 2020.39 1685.03" stroke="url(#paint18_linear_200_82)" stroke-miterlimit="10"/>
<path d="M194.207 -235.411C214.813 -169.036 247.045 -107.017 287.806 -51.0971C305.864 -26.3272 325.667 -2.65203 347.891 18.7127C392.186 61.3187 444.528 93.482 499.563 117.293C514.964 124.002 530.564 130.075 546.225 135.614C612.65 158.952 682.303 172.909 752.799 178.641C822.433 184.272 893.021 181.211 964.409 176.781C1056.72 171.048 1149.48 156.667 1241.77 163.423C1319.92 169.174 1400.23 193.34 1457.71 244.986C1468.22 254.415 1477.91 264.729 1486.72 275.979C1540.98 345.453 1550.88 435.996 1550.45 526.217C1550.31 554.581 1549.18 582.946 1548.08 610.638C1545.24 683.096 1545.24 758.122 1553.29 830.634C1566.52 948.647 1604.59 1057.16 1681.49 1144.26C1708.3 1174.63 1740.43 1203.06 1776.12 1225.9C1827.09 1258.53 1879.95 1282.17 1923.78 1316.04C1927.23 1318.71 1930.67 1321.46 1934.04 1324.26C1984.94 1366.81 2019.83 1424.3 2035.92 1488.32C2053.06 1556.42 2048.42 1632.99 2013.07 1699.07" stroke="url(#paint19_linear_200_82)" stroke-miterlimit="10"/>
<path d="M215.88 -256.471C235.866 -191.77 267.734 -131.5 308.338 -77.5607C326.324 -53.6675 346.003 -30.9377 367.664 -10.0917C410.764 31.4413 460.71 64.9206 513.767 90.7515C528.62 98.0034 543.706 104.724 558.956 110.878C623.406 136.895 691.422 153.717 760.674 162.481C829.029 171.126 898.657 171.557 968.349 168.019C1062.63 163.226 1157 147.817 1251.24 154.227C1330.97 159.658 1413.22 183.843 1472.12 236.079C1482.86 245.628 1492.86 256.098 1501.88 267.536C1557.56 338.156 1567.59 430.438 1567.5 522.502C1567.47 551.417 1566.46 580.351 1565.51 608.613C1563.12 682.513 1564.11 759.213 1573.68 833.326C1589.32 954.028 1629.54 1066.33 1712.32 1152.53C1739.76 1181.09 1771.74 1206.69 1805.65 1229.17C1854.12 1261.31 1903.92 1288.46 1944.67 1325.63C1947.89 1328.57 1951.07 1331.57 1954.18 1334.63C2001.24 1381.1 2031.01 1442.06 2041.68 1507.09C2053.05 1576.22 2042.58 1650.53 2005.37 1712.91" stroke="url(#paint20_linear_200_82)" stroke-miterlimit="10"/>
<path d="M236.85 -279.615C281.816 -133.081 392.733 -11.2219 527.342 62.2735C661.969 135.735 818.608 163.305 971.823 157.311C1068.11 153.556 1164.13 137.011 1260.31 143.072C1356.5 149.133 1456.75 181.834 1516.75 257.239C1591.88 351.6 1585.82 484.27 1582.73 604.705C1577.69 802.821 1599.65 1021.9 1743.01 1159.04C1814.42 1227.34 1909.95 1268.36 1974.3 1343.29C2063.57 1447.19 2073.6 1611.15 1997.72 1725" stroke="url(#paint21_linear_200_82)" stroke-miterlimit="10"/>
</g>
</g>
<defs>
<linearGradient id="paint0_linear_200_82" x1="1993.9" y1="1766.79" x2="2380.64" y2="554.237" gradientUnits="userSpaceOnUse">
<stop stop-color="#FD31C1"/>
<stop offset="1" stop-color="#4464E9"/>
</linearGradient>
<linearGradient id="paint1_linear_200_82" x1="2011.28" y1="1733.4" x2="2392.57" y2="553.806" gradientUnits="userSpaceOnUse">
<stop stop-color="#FD31C1"/>
<stop offset="1" stop-color="#4464E9"/>
</linearGradient>
<linearGradient id="paint2_linear_200_82" x1="2028.2" y1="1697.47" x2="2402.96" y2="556.341" gradientUnits="userSpaceOnUse">
<stop stop-color="#FD31C1"/>
<stop offset="1" stop-color="#4464E9"/>
</linearGradient>
<linearGradient id="paint3_linear_200_82" x1="2037.19" y1="1680.2" x2="2410.4" y2="544.47" gradientUnits="userSpaceOnUse">
<stop stop-color="#FD31C1"/>
<stop offset="1" stop-color="#4464E9"/>
</linearGradient>
<linearGradient id="paint4_linear_200_82" x1="2041.53" y1="1668.44" x2="2414.49" y2="529.851" gradientUnits="userSpaceOnUse">
<stop stop-color="#FD31C1"/>
<stop offset="1" stop-color="#4464E9"/>
</linearGradient>
<linearGradient id="paint5_linear_200_82" x1="2046.33" y1="1659.23" x2="2419.85" y2="512.27" gradientUnits="userSpaceOnUse">
<stop stop-color="#FD31C1"/>
<stop offset="1" stop-color="#4464E9"/>
</linearGradient>
<linearGradient id="paint6_linear_200_82" x1="2049.82" y1="1649.08" x2="2423.45" y2="496.503" gradientUnits="userSpaceOnUse">
<stop stop-color="#FD31C1"/>
<stop offset="1" stop-color="#4464E9"/>
</linearGradient>
<linearGradient id="paint7_linear_200_82" x1="2054.62" y1="1639.88" x2="2428.73" y2="478.922" gradientUnits="userSpaceOnUse">
<stop stop-color="#FD31C1"/>
<stop offset="1" stop-color="#4464E9"/>
</linearGradient>
<linearGradient id="paint8_linear_200_82" x1="2050.45" y1="1644.44" x2="2428.41" y2="450.327" gradientUnits="userSpaceOnUse">
<stop stop-color="#FD31C1"/>
<stop offset="1" stop-color="#4464E9"/>
</linearGradient>
<linearGradient id="paint9_linear_200_82" x1="2041.09" y1="1662.42" x2="2424.83" y2="415.9" gradientUnits="userSpaceOnUse">
<stop stop-color="#FD31C1"/>
<stop offset="1" stop-color="#4464E9"/>
</linearGradient>
<linearGradient id="paint10_linear_200_82" x1="2030.22" y1="1679.88" x2="2419.09" y2="378.263" gradientUnits="userSpaceOnUse">
<stop stop-color="#FD31C1"/>
<stop offset="1" stop-color="#4464E9"/>
</linearGradient>
<linearGradient id="paint11_linear_200_82" x1="2021.6" y1="1696.45" x2="2414.34" y2="342.567" gradientUnits="userSpaceOnUse">
<stop stop-color="#FD31C1"/>
<stop offset="1" stop-color="#4464E9"/>
</linearGradient>
<linearGradient id="paint12_linear_200_82" x1="2010.83" y1="1713.71" x2="2406.52" y2="307.66" gradientUnits="userSpaceOnUse">
<stop stop-color="#FD31C1"/>
<stop offset="1" stop-color="#4464E9"/>
</linearGradient>
<linearGradient id="paint13_linear_200_82" x1="2001.36" y1="1731.9" x2="2399.22" y2="271.095" gradientUnits="userSpaceOnUse">
<stop stop-color="#FD31C1"/>
<stop offset="1" stop-color="#4464E9"/>
</linearGradient>
<linearGradient id="paint14_linear_200_82" x1="1991.33" y1="1747.74" x2="2390.01" y2="235.063" gradientUnits="userSpaceOnUse">
<stop stop-color="#FD31C1"/>
<stop offset="1" stop-color="#4464E9"/>
</linearGradient>
<linearGradient id="paint15_linear_200_82" x1="1981.97" y1="1765.72" x2="2380.96" y2="201.355" gradientUnits="userSpaceOnUse">
<stop stop-color="#FD31C1"/>
<stop offset="1" stop-color="#4464E9"/>
</linearGradient>
<linearGradient id="paint16_linear_200_82" x1="1971.09" y1="1783.18" x2="2369.01" y2="164.613" gradientUnits="userSpaceOnUse">
<stop stop-color="#FD31C1"/>
<stop offset="1" stop-color="#4464E9"/>
</linearGradient>
<linearGradient id="paint17_linear_200_82" x1="1961.63" y1="1801.37" x2="2357.95" y2="128.857" gradientUnits="userSpaceOnUse">
<stop stop-color="#FD31C1"/>
<stop offset="1" stop-color="#4464E9"/>
</linearGradient>
<linearGradient id="paint18_linear_200_82" x1="1951.59" y1="1817.21" x2="2344.83" y2="93.7114" gradientUnits="userSpaceOnUse">
<stop stop-color="#FD31C1"/>
<stop offset="1" stop-color="#4464E9"/>
</linearGradient>
<linearGradient id="paint19_linear_200_82" x1="1942.13" y1="1835.41" x2="2331.8" y2="58.5067" gradientUnits="userSpaceOnUse">
<stop stop-color="#FD31C1"/>
<stop offset="1" stop-color="#4464E9"/>
</linearGradient>
<linearGradient id="paint20_linear_200_82" x1="1932.77" y1="1853.39" x2="2317.74" y2="26.0785" gradientUnits="userSpaceOnUse">
<stop stop-color="#FD31C1"/>
<stop offset="1" stop-color="#4464E9"/>
</linearGradient>
<linearGradient id="paint21_linear_200_82" x1="1924.14" y1="1869.97" x2="2303.82" y2="-7.45264" gradientUnits="userSpaceOnUse">
<stop stop-color="#FD31C1"/>
<stop offset="1" stop-color="#4464E9"/>
</linearGradient>
<clipPath id="clip0_200_82">
<rect width="1974" height="2304" fill="white"/>
</clipPath>
</defs>
</svg>
