<svg width="45" height="45" viewBox="0 0 45 45" fill="none" xmlns="http://www.w3.org/2000/svg">
<path d="M22.5 5C12.8312 5 5 12.8312 5 22.5C5 32.1688 12.8312 40 22.5 40C32.1688 40 40 32.1688 40 22.5C40 12.8312 32.1688 5 22.5 5ZM30.9875 28.0125C30.725 28.45 30.2437 28.7125 29.7625 28.7125C29.5437 28.7125 29.2812 28.6687 29.0625 28.5375L21.8 24.425C21.3625 24.1625 21.1 23.725 21.1 23.2V13.2687C21.1 12.4812 21.7125 11.8688 22.5 11.8688C23.2875 11.8688 23.9 12.4812 23.9 13.2687V22.4125L30.4625 26.1312C31.1187 26.4812 31.3813 27.3562 30.9875 28.0125Z" fill="#1C8FF9"/>
</svg>
