<svg width="355" height="55" viewBox="0 0 355 55" fill="none" xmlns="http://www.w3.org/2000/svg">
<path d="M4.35751 52.6636C3.61051 51.8544 3.23701 50.9206 3.23701 49.8624C3.23701 49.2399 3.36151 48.6174 3.61051 47.9326L14.691 15.687C15.5003 13.3215 16.7453 11.3295 18.4261 9.64877L12.45 4.23301H76.63L72.4592 16.3718H32.5569C32.4946 16.3718 32.4324 16.434 32.3701 16.434H24.1531L29.6311 21.414L22.5968 41.8943C22.5968 41.9566 22.5346 42.0188 22.5346 42.0811C22.5346 42.3301 22.7213 42.4546 23.0948 42.4546H45.9407C46.7499 42.4546 47.3102 42.1433 47.4969 41.5208L50.2359 33.6151H47.8704C46.6254 32.3078 44.3221 29.6933 42.3301 27.5146C41.1474 26.2073 39.9646 24.9001 38.6574 23.4683H70.5295L63.7442 43.1393C61.0675 50.7961 56.1497 54.6556 49.0532 54.6556H9.52428C7.28327 54.6556 5.54027 53.9709 4.35751 52.6636Z" fill="url(#paint0_linear_4_4)"/>
<path d="M76.06 51.2941C74.815 49.9246 74.1925 48.3061 74.1925 46.5009C74.1925 45.4426 74.3793 44.3221 74.815 43.1393L76.3713 38.6573H93.3033L92.2451 41.5208C92.1828 41.6453 92.1828 41.7698 92.1828 41.8943C92.1828 42.2678 92.4941 42.4546 93.1166 42.4546H113.721C114.468 42.4546 114.966 42.1433 115.153 41.5208L117.083 35.9183C117.145 35.7938 117.145 35.6693 117.145 35.5448C117.145 35.2336 116.896 35.0468 116.274 35.0468H91.7471C87.8253 35.0468 84.8373 33.9263 82.8453 31.6853C81.6003 30.3158 80.9778 28.6973 80.9778 26.8921C80.9778 25.8338 81.1645 24.7133 81.6003 23.5306L84.2771 15.687C85.0863 13.2593 86.3936 11.205 88.1366 9.46202L82.3473 4.23301H130.84C134.886 4.23301 137.812 5.35351 139.742 7.53227C140.987 8.96402 141.609 10.6448 141.609 12.5123C141.609 13.5083 141.423 14.5665 141.049 15.687L139.493 20.169H122.561L123.495 17.3055C123.557 17.181 123.557 16.9943 123.619 16.8698C123.557 16.5585 123.308 16.3718 122.748 16.3718H102.081C102.018 16.3718 102.018 16.434 101.956 16.434H94.0503L99.2794 21.165L98.6568 22.9081C98.5946 23.0326 98.5946 23.1571 98.5946 23.2816C98.5946 23.6551 98.9058 23.8418 99.5284 23.8418H124.055C128.039 23.8418 131.027 24.9623 133.019 27.1411C134.264 28.5728 134.886 30.1913 134.886 31.9966C134.886 33.0548 134.7 34.1753 134.264 35.2958L131.587 43.1393C129.035 50.1736 123.121 54.6556 115.589 54.6556H84.9618C81.04 54.6556 78.052 53.5351 76.06 51.2941Z" fill="url(#paint1_linear_4_4)"/>
<path d="M160.9 51.2941C159.655 49.9246 159.033 48.3061 159.033 46.5009C159.033 45.4426 159.219 44.3221 159.655 43.1393L169.117 15.687C169.802 13.446 171.047 11.3918 172.728 9.52427L166.876 4.23301H223.275C225.578 4.23301 227.321 4.85551 228.504 6.16276C229.251 7.03427 229.562 7.96802 229.562 9.08852C229.562 9.64877 229.5 10.2713 229.251 10.956L225.391 22.2233H208.459L210.202 16.932C210.202 16.8698 210.265 16.7453 210.265 16.683C210.265 16.4963 210.078 16.3718 209.767 16.3718H186.921C186.859 16.3718 186.859 16.434 186.796 16.434H178.144L183.933 21.663L177.085 41.5208C177.023 41.6453 177.023 41.7698 177.023 41.8943C177.023 42.2678 177.334 42.4546 177.957 42.4546H200.74C201.176 42.4546 201.487 42.2678 201.612 41.8943L203.417 36.6653H220.349L216.49 47.9326C214.996 51.9789 210.016 54.6556 205.845 54.6556H169.802C165.88 54.6556 162.892 53.5351 160.9 51.2941Z" fill="url(#paint2_linear_4_4)"/>
<path d="M256.756 54.6556H225.474L235.76 24.8976L230.723 20.3682H248.84L239.866 46.3589H259.634L256.756 54.6556Z" fill="url(#paint3_linear_4_4)"/>
<path d="M263.502 52.3698C262.656 51.4385 262.233 50.338 262.233 49.1104C262.233 48.3908 262.359 47.6288 262.656 46.8246L270.191 24.9822L265.069 20.3682H283.313L274.508 45.724C274.466 45.8086 274.466 45.8933 274.466 45.978C274.466 46.2319 274.678 46.3589 275.101 46.3589H290.467C290.975 46.3589 291.313 46.1473 291.44 45.724L300.245 20.3682H311.759L302.615 46.8246C300.88 51.5655 297.113 54.6556 291.991 54.6556H269.556C266.889 54.6556 264.857 53.8937 263.502 52.3698Z" fill="url(#paint4_linear_4_4)"/>
<path d="M308.183 54.6556L318.469 24.9399L313.432 20.3682H347.592C350.64 20.3682 354.238 21.2995 354.915 24.7282C354.958 25.0246 355 25.3632 355 25.7018C355 26.2945 354.915 26.9294 354.746 27.649C354.069 30.5698 352.164 34.3372 349.539 35.9034C350.767 36.7077 351.571 37.9776 351.868 39.7131C351.952 40.2211 351.995 40.7714 351.995 41.3216C351.995 42.3376 351.825 43.3958 351.529 44.4964C349.963 49.7453 345.391 54.6556 339.634 54.6556H308.183ZM320.924 40.8137L323.633 43.2688L322.575 46.3589H336.036C337.348 46.3589 339.423 45.4277 339.761 43.9884L340.057 43.2265C340.142 42.9302 340.184 42.7185 340.184 42.5069C340.184 42.3799 340.184 42.2529 340.142 42.1682C339.973 41.237 339.253 40.7714 337.983 40.7714L324.522 40.8137H320.924ZM328.671 28.6226H324.565L327.697 31.4587L326.808 34.1255H338.237C339.719 34.1255 341.581 33.1943 342.047 31.6704L342.301 31.0354C342.386 30.8661 342.386 30.6968 342.386 30.4851C342.386 30.3582 342.386 30.2312 342.343 30.1042C342.174 29.0882 341.454 28.5803 340.142 28.5803H328.713L328.671 28.6226Z" fill="url(#paint5_linear_4_4)"/>
<path d="M1.1205 48.4306C0.373501 47.6214 0 46.6876 0 45.6294C0 45.0069 0.1245 44.3843 0.373501 43.6996L11.454 11.454C12.2633 9.08852 13.5083 7.09652 15.189 5.41576L9.21303 0H73.393L69.2222 12.1388H29.3198C29.2576 12.1388 29.1953 12.201 29.1331 12.201H20.9161L26.3941 17.181L19.3598 37.6613C19.3598 37.7236 19.2976 37.7858 19.2976 37.8481C19.2976 38.0971 19.4843 38.2216 19.8578 38.2216H42.7036C43.5129 38.2216 44.0731 37.9103 44.2599 37.2878L46.9989 29.3821H44.6334C43.3884 28.0748 41.0851 25.4603 39.0931 23.2816C37.9104 21.9743 36.7276 20.667 35.4204 19.2353H67.2925L60.5072 38.9063C57.8304 46.5631 52.9127 50.4226 45.8162 50.4226H6.28727C4.04626 50.4226 2.30326 49.7379 1.1205 48.4306Z" fill="white"/>
<path d="M72.823 47.0611C71.578 45.6916 70.9555 44.0731 70.9555 42.2678C70.9555 41.2096 71.1423 40.0891 71.578 38.9063L73.1343 34.4243H90.0663L89.0081 37.2878C88.9458 37.4123 88.9458 37.5368 88.9458 37.6613C88.9458 38.0348 89.2571 38.2216 89.8796 38.2216H110.484C111.231 38.2216 111.729 37.9103 111.916 37.2878L113.846 31.6853C113.908 31.5608 113.908 31.4363 113.908 31.3118C113.908 31.0006 113.659 30.8138 113.037 30.8138H88.5101C84.5883 30.8138 81.6003 29.6933 79.6083 27.4523C78.3633 26.0828 77.7408 24.4643 77.7408 22.6591C77.7408 21.6008 77.9275 20.4803 78.3633 19.2975L81.04 11.454C81.8493 9.02627 83.1565 6.97202 84.8996 5.22901L79.1103 0H127.603C131.649 0 134.575 1.1205 136.505 3.29926C137.75 4.73101 138.372 6.41177 138.372 8.27927C138.372 9.27527 138.186 10.3335 137.812 11.454L136.256 15.936H119.324L120.258 13.0725C120.32 12.948 120.32 12.7613 120.382 12.6368C120.32 12.3255 120.071 12.1388 119.511 12.1388H98.8436C98.7813 12.1388 98.7813 12.201 98.7191 12.201H90.8133L96.0423 16.932L95.4198 18.675C95.3576 18.7995 95.3576 18.924 95.3576 19.0485C95.3576 19.422 95.6688 19.6088 96.2913 19.6088H120.818C124.802 19.6088 127.79 20.7293 129.782 22.9081C131.027 24.3398 131.649 25.9583 131.649 27.7636C131.649 28.8218 131.463 29.9423 131.027 31.0628L128.35 38.9063C125.798 45.9406 119.884 50.4226 112.352 50.4226H81.7248C77.803 50.4226 74.815 49.3021 72.823 47.0611Z" fill="white"/>
<path d="M157.663 47.0611C156.418 45.6916 155.796 44.0731 155.796 42.2678C155.796 41.2096 155.982 40.0891 156.418 38.9063L165.88 11.454C166.565 9.21302 167.81 7.15877 169.491 5.29126L163.639 0H220.038C222.341 0 224.084 0.622505 225.267 1.92976C226.014 2.80126 226.325 3.73501 226.325 4.85551C226.325 5.41576 226.263 6.03826 226.014 6.72302L222.154 17.9903H205.222L206.965 12.699C206.965 12.6368 207.028 12.5123 207.028 12.45C207.028 12.2633 206.841 12.1388 206.53 12.1388H183.684C183.622 12.1388 183.622 12.201 183.559 12.201H174.907L180.696 17.43L173.848 37.2878C173.786 37.4123 173.786 37.5368 173.786 37.6613C173.786 38.0348 174.097 38.2216 174.72 38.2216H197.503C197.939 38.2216 198.25 38.0348 198.375 37.6613L200.18 32.4323H217.112L213.253 43.6996C211.759 47.7459 206.779 50.4226 202.608 50.4226H166.565C162.643 50.4226 159.655 49.3021 157.663 47.0611Z" fill="white"/>
<path d="M253.519 50.4226H222.237L232.523 20.6646L227.486 16.1352H245.603L236.629 42.1259H256.397L253.519 50.4226Z" fill="white"/>
<path d="M260.265 48.1368C259.419 47.2055 258.996 46.1049 258.996 44.8774C258.996 44.1578 259.122 43.3958 259.419 42.5915L266.954 20.7492L261.832 16.1352H280.076L271.271 41.491C271.229 41.5756 271.229 41.6603 271.229 41.7449C271.229 41.9989 271.441 42.1259 271.864 42.1259H287.23C287.738 42.1259 288.076 41.9143 288.203 41.491L297.008 16.1352H308.522L299.378 42.5915C297.643 47.3325 293.876 50.4226 288.754 50.4226H266.319C263.652 50.4226 261.62 49.6607 260.265 48.1368Z" fill="white"/>
<path d="M304.946 50.4226L315.232 20.7069L310.195 16.1352H344.355C347.403 16.1352 351.001 17.0665 351.678 20.4952C351.721 20.7915 351.763 21.1302 351.763 21.4688C351.763 22.0615 351.678 22.6964 351.509 23.416C350.832 26.3368 348.927 30.1042 346.302 31.6704C347.53 32.4747 348.334 33.7446 348.631 35.4801C348.715 35.9881 348.758 36.5383 348.758 37.0886C348.758 38.1046 348.588 39.1628 348.292 40.2634C346.726 45.5123 342.154 50.4226 336.397 50.4226H304.946ZM317.687 36.5807L320.396 39.0358L319.338 42.1259H332.799C334.111 42.1259 336.186 41.1947 336.524 39.7554L336.82 38.9935C336.905 38.6972 336.947 38.4855 336.947 38.2739C336.947 38.1469 336.947 38.0199 336.905 37.9352C336.736 37.004 336.016 36.5383 334.746 36.5383L321.285 36.5807H317.687ZM325.434 24.3896H321.328L324.46 27.2257L323.571 29.8925H335C336.482 29.8925 338.344 28.9613 338.81 27.4374L339.064 26.8024C339.149 26.6331 339.149 26.4638 339.149 26.2521C339.149 26.1251 339.149 25.9981 339.106 25.8712C338.937 24.8552 338.217 24.3473 336.905 24.3473H325.476L325.434 24.3896Z" fill="white"/>
<defs>
<linearGradient id="paint0_linear_4_4" x1="-154.636" y1="-13.1691" x2="-1.14858" y2="332.371" gradientUnits="userSpaceOnUse">
<stop offset="0.25" stop-color="#1C8FF9"/>
<stop offset="0.619792" stop-color="#FC00E3"/>
</linearGradient>
<linearGradient id="paint1_linear_4_4" x1="-154.636" y1="-13.1691" x2="-1.14858" y2="332.371" gradientUnits="userSpaceOnUse">
<stop offset="0.25" stop-color="#1C8FF9"/>
<stop offset="0.619792" stop-color="#FC00E3"/>
</linearGradient>
<linearGradient id="paint2_linear_4_4" x1="-154.636" y1="-13.1691" x2="-1.14858" y2="332.371" gradientUnits="userSpaceOnUse">
<stop offset="0.25" stop-color="#1C8FF9"/>
<stop offset="0.619792" stop-color="#FC00E3"/>
</linearGradient>
<linearGradient id="paint3_linear_4_4" x1="-154.636" y1="-13.1691" x2="-1.14858" y2="332.371" gradientUnits="userSpaceOnUse">
<stop offset="0.25" stop-color="#1C8FF9"/>
<stop offset="0.619792" stop-color="#FC00E3"/>
</linearGradient>
<linearGradient id="paint4_linear_4_4" x1="-154.636" y1="-13.1691" x2="-1.14858" y2="332.371" gradientUnits="userSpaceOnUse">
<stop offset="0.25" stop-color="#1C8FF9"/>
<stop offset="0.619792" stop-color="#FC00E3"/>
</linearGradient>
<linearGradient id="paint5_linear_4_4" x1="-154.636" y1="-13.1691" x2="-1.14858" y2="332.371" gradientUnits="userSpaceOnUse">
<stop offset="0.25" stop-color="#1C8FF9"/>
<stop offset="0.619792" stop-color="#FC00E3"/>
</linearGradient>
</defs>
</svg>
