<svg width="45" height="45" viewBox="0 0 45 45" fill="none" xmlns="http://www.w3.org/2000/svg">
<path d="M39.8448 9.25071C39.4881 9.08678 39.0927 9 38.6781 9H5.89282C5.47819 9 5.08284 9.09643 4.72606 9.25071L22.2855 25.0551L39.8448 9.25071Z" fill="#1C8FF9"/>
<path d="M22.9315 27.0708C22.7483 27.2348 22.5169 27.3215 22.2854 27.3215C22.054 27.3215 21.8226 27.2348 21.6394 27.0708L3.32785 10.5914C3.12536 10.9868 3 11.4207 3 11.8932V33.1072C3 34.6982 4.30177 36 5.89282 36H38.6781C40.2691 36 41.5709 34.6982 41.5709 33.1072V11.8932C41.5709 11.4207 41.4455 10.9868 41.243 10.5914L22.9315 27.0708Z" fill="#1C8FF9"/>
</svg>
