<svg width="45" height="45" viewBox="0 0 45 45" fill="none" xmlns="http://www.w3.org/2000/svg">
<path fill-rule="evenodd" clip-rule="evenodd" d="M22.6687 3C31.3135 3 38.3375 10.0239 38.3375 18.6687C38.3375 25.4225 30.5031 36.7688 24.6949 42.3069C23.6143 43.2524 21.8583 43.2524 20.7777 42.1718C14.9694 36.3636 7 25.9628 7 18.6687C7 10.0239 14.0239 3 22.6687 3ZM22.6687 10.2941C27.2613 10.2941 31.0434 14.0762 31.0434 18.6687C31.0434 23.2613 27.2613 27.0434 22.6687 27.0434C18.0762 27.0434 14.2941 23.2613 14.2941 18.6687C14.2941 14.0762 18.0762 10.2941 22.6687 10.2941Z" fill="#1C8FF9"/>
</svg>
