<svg width="45" height="45" viewBox="0 0 45 45" fill="none" xmlns="http://www.w3.org/2000/svg">
<path d="M8.84142 5H9.45759C11.0925 5.60546 12.3424 6.74989 13.5922 7.90832C14.6038 8.82853 15.5612 9.80662 16.4595 10.8376C17.3399 11.8466 17.8151 13.1458 17.7934 14.4844C17.7936 14.9398 17.7263 15.3927 17.5938 15.8283C17.4184 16.4305 17.0485 16.9576 16.5418 17.3273C16.0351 17.6971 15.4202 17.8887 14.7931 17.8722H14.2679C13.4872 24.4098 20.5696 31.5213 27.0989 30.7199C27.12 30.3699 27.0989 30.0374 27.162 29.7015C27.428 27.9236 29.3501 26.8491 30.7855 26.9506C31.5402 27.0022 32.2698 27.2429 32.907 27.6506C33.5692 28.0533 34.1937 28.5148 34.7731 29.0295C36.2594 30.378 37.6123 31.8664 38.8132 33.4742C39.2482 34.1355 39.6445 34.8214 40 35.5286V36.1481C39.6005 36.7454 39.0776 37.2502 38.4666 37.6285C36.8177 38.8283 34.8896 39.5873 32.865 39.8333C29.0455 40.3548 25.4115 39.6233 21.9525 38.0484C14.8176 34.8006 9.69915 29.5475 6.63581 22.3204C5.44231 19.5697 4.88925 16.584 5.01836 13.5885C5.1689 10.4772 6.13167 7.67733 8.32677 5.38148C8.48718 5.23995 8.65935 5.11233 8.84142 5Z" fill="#1C8FF9"/>
</svg>
