<svg width="55" height="55" viewBox="0 0 55 55" fill="none" xmlns="http://www.w3.org/2000/svg">
<path d="M9.93896 6H10.7312C12.8333 6.77845 14.4402 8.24986 16.0471 9.73927C17.3478 10.9224 18.5787 12.1799 19.7337 13.5055C20.8656 14.8027 21.4765 16.4731 21.4486 18.1942C21.4489 18.7797 21.3624 19.362 21.1921 19.9221C20.9666 20.6963 20.491 21.374 19.8395 21.8494C19.188 22.3248 18.3974 22.5712 17.5911 22.55H16.9159C15.9121 30.9554 25.0181 40.0989 33.4129 39.0684C33.4399 38.6185 33.4129 38.191 33.494 37.759C33.836 35.4732 36.3072 34.0918 38.1527 34.2222C39.1231 34.2885 40.0612 34.598 40.8805 35.1222C41.7318 35.64 42.5348 36.2333 43.2796 36.8951C45.1906 38.6289 46.9301 40.5426 48.4741 42.6097C49.0334 43.4599 49.5429 44.3419 50 45.2511V46.0475C49.4864 46.8155 48.8141 47.4645 48.0285 47.9509C45.9085 49.4936 43.4295 50.4694 40.8265 50.7857C35.9156 51.4562 31.2433 50.5157 26.7961 48.4909C17.6226 44.3151 11.0418 37.561 7.10318 28.2691C5.56868 24.7325 4.85761 20.8937 5.02361 17.0423C5.21716 13.0421 6.455 9.44229 9.27728 6.49047C9.48352 6.30851 9.70488 6.14443 9.93896 6Z" fill="#F808D5"/>
</svg>
