<svg width="60" height="60" viewBox="0 0 60 60" fill="none" xmlns="http://www.w3.org/2000/svg">
<g clip-path="url(#clip0_44_34)">
<path d="M60 30C60 46.575 46.575 60 30 60C13.425 60 0 46.575 0 30C0 13.425 13.425 0 30 0C46.575 0 60 13.425 60 30Z" fill="url(#paint0_linear_44_34)"/>
<path d="M24.5 43.75C23.525 43.75 23.7 43.375 23.35 42.45L20.5 33.05L38.2 22L40.275 22.55L38.55 27.25L24.5 43.75Z" fill="#C8DAEA"/>
<path d="M24.5 43.75C25.25 43.75 25.575 43.4 26 43C26.65 42.375 35 34.25 35 34.25L29.875 33L25.125 36L24.5 43.5V43.75Z" fill="#A9C9DD"/>
<path d="M25 36.1001L37.1 45.0251C38.475 45.7751 39.475 45.4001 39.825 43.7501L44.75 20.5501C45.25 18.5251 43.975 17.6251 42.65 18.2251L13.75 29.3751C11.775 30.1751 11.8 31.2751 13.4 31.7501L20.825 34.0751L38 23.2501C38.8 22.7501 39.55 23.0251 38.95 23.5751L25 36.1001Z" fill="url(#paint1_linear_44_34)"/>
</g>
<defs>
<linearGradient id="paint0_linear_44_34" x1="38.7925" y1="9.4825" x2="23.7925" y2="44.482" gradientUnits="userSpaceOnUse">
<stop stop-color="#37AEE2"/>
<stop offset="1" stop-color="#1E96C8"/>
</linearGradient>
<linearGradient id="paint1_linear_44_34" x1="32.2477" y1="30.9389" x2="38.4978" y2="40.9389" gradientUnits="userSpaceOnUse">
<stop stop-color="#EFF7FC"/>
<stop offset="1" stop-color="white"/>
</linearGradient>
<clipPath id="clip0_44_34">
<rect width="60" height="60" fill="white"/>
</clipPath>
</defs>
</svg>
