<svg width="60" height="60" viewBox="0 0 60 60" fill="none" xmlns="http://www.w3.org/2000/svg">
<g clip-path="url(#clip0_44_42)">
<path d="M59.5312 30.1025C59.5312 46.2821 46.414 59.3994 30.2344 59.3994C14.0546 59.3994 0.9375 46.2821 0.9375 30.1025C0.9375 13.9228 14.0546 0.805664 30.2344 0.805664C46.414 0.805664 59.5312 13.9228 59.5312 30.1025Z" fill="#4D77A2"/>
<path fill-rule="evenodd" clip-rule="evenodd" d="M29.1278 42.9524H31.4278C31.4278 42.9524 32.1215 42.8765 32.4758 42.4933C32.8016 42.1421 32.792 41.4835 32.792 41.4835C32.792 41.4835 32.7461 38.3981 34.1792 37.9442C35.592 37.4954 37.4024 40.9252 39.3251 42.2435C40.7786 43.2431 41.8827 43.0238 41.8827 43.0238L47.0183 42.9525C47.0183 42.9525 49.7061 42.7868 48.4311 40.6734C48.3265 40.4994 47.6891 39.1097 44.6112 36.2537C41.3906 33.2651 41.8214 33.7469 45.7026 28.5756C48.0663 25.4263 49.0099 23.5039 48.7166 22.68C48.4336 21.8946 46.6971 22.1038 46.6971 22.1038L40.9111 22.1394C40.9111 22.1394 40.4828 22.0808 40.164 22.2695C39.8529 22.4556 39.6539 22.8917 39.6539 22.8917C39.6539 22.8917 38.7385 25.3298 37.5171 27.3998C34.9416 31.776 33.9114 32.0054 33.4907 31.7352C32.5116 31.1001 32.7563 29.1906 32.7563 27.8339C32.7563 23.5952 33.3988 21.828 31.5041 21.3719C30.8768 21.2192 30.4127 21.1192 28.8063 21.1042C26.7409 21.0812 24.9941 21.1095 24.0047 21.5938C23.3468 21.9151 22.8394 22.6345 23.1479 22.6749C23.5304 22.7257 24.3974 22.9098 24.8564 23.5346C25.448 24.3402 25.4276 26.1502 25.4276 26.1502C25.4276 26.1502 25.7693 31.1409 24.632 31.7605C23.8517 32.187 22.7833 31.3168 20.4857 27.3487C19.3102 25.3167 18.4227 23.0704 18.4227 23.0704C18.4227 23.0704 18.2519 22.652 17.9459 22.4272C17.5736 22.1543 17.056 22.0683 17.056 22.0683L11.5604 22.1036C11.5604 22.1036 10.7345 22.1263 10.4311 22.4861C10.1633 22.8045 10.4111 23.4654 10.4111 23.4654C10.4111 23.4654 14.7127 33.5328 19.5857 38.6053C24.0532 43.2585 29.1278 42.9524 29.1278 42.9524Z" fill="white"/>
</g>
<defs>
<clipPath id="clip0_44_42">
<rect width="60" height="60" fill="white"/>
</clipPath>
</defs>
</svg>
