<svg width="60" height="60" viewBox="0 0 60 60" fill="none" xmlns="http://www.w3.org/2000/svg">
<g clip-path="url(#clip0_44_39)">
<path d="M60 30C60 13.4315 46.5685 0 30 0C13.4315 0 0 13.4315 0 30C0 46.5685 13.4315 60 30 60C46.5685 60 60 46.5685 60 30Z" fill="#0DC143"/>
<path d="M43.4384 16.5144C40.2221 13.2035 35.7763 11.4062 31.2356 11.4062C21.587 11.4062 13.8303 19.2576 13.9249 28.8116C13.9249 31.8386 14.7763 34.7711 16.1951 37.4198L13.7356 46.4062L22.9114 44.0414C25.4654 45.4603 28.3033 46.1225 31.141 46.1225C40.6951 46.1225 48.4519 38.2711 48.4519 28.717C48.4519 24.0819 46.6546 19.7306 43.4384 16.5144ZM31.2356 43.19C28.6816 43.19 26.1275 42.5279 23.9519 41.2035L23.3843 40.9198L17.8979 42.3386L19.3168 36.9468L18.9384 36.3792C14.7763 29.663 16.7626 20.7711 23.5735 16.609C30.3843 12.4468 39.1816 14.4333 43.3438 21.2441C47.5059 28.0549 45.5195 36.8523 38.7086 41.0144C36.533 42.4333 33.8843 43.19 31.2356 43.19ZM39.56 32.69L38.5195 32.217C38.5195 32.217 37.0059 31.5549 36.06 31.0819C35.9654 31.0819 35.8708 30.9874 35.7763 30.9874C35.4924 30.9874 35.3033 31.0819 35.114 31.1765C35.114 31.1765 35.0195 31.2711 33.6951 32.7846C33.6005 32.9739 33.4114 33.0684 33.2221 33.0684H33.1275C33.033 33.0684 32.8438 32.9739 32.7491 32.8792L32.2763 32.69C31.2356 32.217 30.2898 31.6495 29.533 30.8927C29.3438 30.7035 29.06 30.5144 28.8708 30.3251C28.2086 29.663 27.5465 28.9062 27.0735 28.0549L26.9789 27.8658C26.8843 27.7711 26.8843 27.6765 26.7898 27.4874C26.7898 27.2981 26.7898 27.109 26.8843 27.0144C26.8843 27.0144 27.2626 26.5414 27.5465 26.2576C27.7356 26.0684 27.8303 25.7846 28.0195 25.5955C28.2086 25.3116 28.3033 24.9333 28.2086 24.6495C28.114 24.1765 26.9789 21.6225 26.6951 21.0549C26.5059 20.7711 26.3168 20.6765 26.033 20.5819H25.7491C25.56 20.5819 25.2763 20.5819 24.9924 20.5819C24.8033 20.5819 24.614 20.6765 24.4249 20.6765L24.3303 20.7711C24.141 20.8657 23.9519 21.0549 23.7626 21.1495C23.5735 21.3386 23.4789 21.5279 23.2898 21.717C22.6275 22.5684 22.2491 23.609 22.2491 24.6495C22.2491 25.4063 22.4384 26.163 22.7221 26.8251L22.8168 27.109C23.6681 28.9062 24.8033 30.5144 26.3168 31.9333L26.6951 32.3116C26.9789 32.5955 27.2626 32.7846 27.4519 33.0684C29.4384 34.7711 31.7086 36.0009 34.2626 36.663C34.5465 36.7576 34.9249 36.7576 35.2086 36.8522C35.4924 36.8522 35.8708 36.8522 36.1546 36.8522C36.6275 36.8522 37.1951 36.663 37.5735 36.4739C37.8573 36.2846 38.0465 36.2846 38.2356 36.0955L38.4249 35.9062C38.614 35.717 38.8033 35.6225 38.9924 35.4333C39.1816 35.2441 39.3708 35.0549 39.4654 34.8657C39.6546 34.4874 39.7491 34.0144 39.8438 33.5414C39.8438 33.3522 39.8438 33.0684 39.8438 32.8792C39.8438 32.8792 39.7491 32.7846 39.56 32.69Z" fill="white"/>
</g>
<defs>
<clipPath id="clip0_44_39">
<rect width="60" height="60" fill="white"/>
</clipPath>
</defs>
</svg>
