<svg width="60" height="60" viewBox="0 0 60 60" fill="none" xmlns="http://www.w3.org/2000/svg">
<g clip-path="url(#clip0_44_47)">
<path d="M0 30C0 13.4312 13.4312 0 30 0C46.5687 0 60 13.4312 60 30C60 46.5687 46.5687 60 30 60C13.4312 60 0 46.5687 0 30Z" fill="#FF0000"/>
<path d="M45.3312 22.5913C44.9637 21.1788 43.8787 20.065 42.5025 19.6862C40.0062 19 30 19 30 19C30 19 19.9938 19 17.4975 19.6875C16.1213 20.065 15.0362 21.1775 14.6687 22.5913C14 25.1537 14 30.5 14 30.5C14 30.5 14 35.8462 14.6687 38.4087C15.0362 39.8212 16.1213 40.935 17.4975 41.3137C19.9938 42 30 42 30 42C30 42 40.0062 42 42.5025 41.3125C43.8787 40.935 44.9637 39.8225 45.3312 38.4087C46 35.8462 46 30.5 46 30.5C46 30.5 46 25.1537 45.3312 22.5913Z" fill="white"/>
<path d="M27 36V26L35 31L27 36Z" fill="#FF0000"/>
</g>
<defs>
<clipPath id="clip0_44_47">
<rect width="60" height="60" fill="white"/>
</clipPath>
</defs>
</svg>
